<svg height='100px' width='100px'  fill="#000000" xmlns="http://www.w3.org/2000/svg" viewBox="0 0 64 64" x="0px" y="0px"><g><path d="M32,24a8,8,0,1,0,8,8A8.011,8.011,0,0,0,32,24Zm0,14a6,6,0,1,1,6-6A6,6,0,0,1,32,38Z"></path><path d="M61,33H44V30h2a1,1,0,0,0,1-1V27a1,1,0,0,0-.42-.81L33,16.49V14H46a1,1,0,0,0,.94-.67.983.983,0,0,0-.32-1.11L42.6,9l4.02-3.22a.983.983,0,0,0,.32-1.11A1,1,0,0,0,46,4H33V3a1,1,0,0,0-1-1h0a1,1,0,0,0-1,1V16.49l-13.58,9.7A1,1,0,0,0,17,27v2a1,1,0,0,0,1,1h2v3H3a1,1,0,0,0-1,1v4a1,1,0,0,0,1,1H4V61a1,1,0,0,0,1,1H59a1,1,0,0,0,1-1V39h1a1,1,0,0,0,1-1V34A1,1,0,0,0,61,33ZM33,6H43.15L40.38,8.22a.991.991,0,0,0,0,1.56L43.15,12H33ZM20,60H6V39H20Zm0-23H4V35H20ZM35,60H29V52a3,3,0,0,1,6,0Zm7-31V60H37V52a5,5,0,0,0-10,0v8H22V29a1,1,0,0,0-1-1H19v-.49l13-9.28,13,9.28V28H43A1,1,0,0,0,42,29ZM58,60H44V39H58Zm2-23H44V35H60Z"></path><path d="M32,28a1,1,0,0,1,1,1v3a1.033,1.033,0,0,1-.29.71L31.419,34A1,1,0,0,1,30,34h0a1,1,0,0,1,0-1.42l1-.991V29a1,1,0,0,1,1-1Z"></path></g></svg>