<svg height='100px' width='100px'  fill="#000000" xmlns="http://www.w3.org/2000/svg" xmlns:xlink="http://www.w3.org/1999/xlink" version="1.1" x="0px" y="0px" viewBox="0 0 512 512" enable-background="new 0 0 512 512" xml:space="preserve"><g><path d="M485.4,493.6V2H370.7v93.8l-98.3,63.2V85.3l-114.7,73.7V85.3L26.6,169.6v324H2V510h508v-16.4H485.4z M387.1,18.4H469v204.8   h-81.9V18.4z M370.7,115.3v107.9h-98.3v-44.7L370.7,115.3z M256,115.3v107.9h-98.3v-44.7L256,115.3z M43,178.5l98.3-63.2v107.9H43   V178.5z M174.1,493.6V378.9h73.7v114.7H174.1z M264.2,493.6V378.9h73.7v114.7H264.2z M469,493.6H354.3V362.5H157.7v131.1H43v-254   H469V493.6z"></path><path d="M75.7,337.9h65.5v-65.5H75.7V337.9z M92.1,288.8h32.8v32.8H92.1V288.8z"></path><path d="M370.7,337.9h65.5v-65.5h-65.5V337.9z M387.1,288.8h32.8v32.8h-32.8V288.8z"></path><path d="M223.2,337.9h65.5v-65.5h-65.5V337.9z M239.6,288.8h32.8v32.8h-32.8V288.8z"></path></g></svg>