<svg height='100px' width='100px'  fill="#000000" xmlns="http://www.w3.org/2000/svg" xmlns:xlink="http://www.w3.org/1999/xlink" version="1.1" x="0px" y="0px" viewBox="0 0 100 100" enable-background="new 0 0 100 100" xml:space="preserve"><path d="M46.276,13.185l27.056,16.907H19.22L46.276,13.185 M46.276,8.94L6.666,33.692h79.221L46.276,8.94L46.276,8.94z"></path><rect x="16.108" y="42.013" width="7.2" height="36.541"></rect><rect x="29.392" y="42.013" width="7.2" height="36.541"></rect><rect x="42.677" y="42.013" width="7.2" height="36.541"></rect><rect x="12.594" y="36.058" width="67.364" height="3.6"></rect><circle cx="46.276" cy="21.316" r="4.31"></circle><rect x="69.244" y="42.013" width="7.2" height="8.57"></rect><rect x="55.961" y="42.013" width="7.2" height="8.57"></rect><rect x="12.594" y="80.909" width="41.041" height="3.6"></rect><rect x="8.131" y="86.834" width="45.505" height="3.6"></rect><polygon points="55.961,52.908 55.961,90.434 69.244,90.434 69.244,86.834 59.561,86.834 59.561,56.508 89.885,56.508   89.885,86.834 79.958,86.834 79.958,90.434 93.485,90.434 93.485,52.908 "></polygon><path d="M82.337,65.64h-0.149c-1.69,0-3.187-1.088-3.709-2.695l-0.047-0.143c-1.167-3.593-6.25-3.593-7.418,0l-0.046,0.143  c-0.522,1.607-2.019,2.695-3.709,2.695h-0.149c-3.778,0-5.349,4.834-2.293,7.055l0.122,0.088c1.367,0.993,1.939,2.753,1.416,4.36  l-0.046,0.143c-1.038,3.195,2.096,5.888,4.952,4.89V94.6l3.147-3.843l3.41,3.843V81.99c2.947,1.388,6.404-1.369,5.321-4.704  l-0.047-0.143c-0.522-1.607,0.05-3.367,1.418-4.36l0.12-0.088C87.686,70.475,86.116,65.64,82.337,65.64z M74.724,76.783  c-2.634,0-4.769-2.135-4.769-4.769c0-2.634,2.135-4.769,4.769-4.769c2.633,0,4.769,2.135,4.769,4.769  C79.493,74.648,77.357,76.783,74.724,76.783z"></path></svg>