<svg height='100px' width='100px'  fill="#000000" xmlns="http://www.w3.org/2000/svg" viewBox="0 0 100 100" x="0px" y="0px"><path fill-rule="evenodd" d="M2006.3064,277.918827 C2007.32028,277.918827 2008.14313,278.739847 2008.14313,279.755561 L2008.14313,314.65352 C2008.14313,315.669235 2007.32028,316.490255 2006.3064,316.490255 L1984.26558,316.490255 C1983.24987,316.490255 1982.42885,315.669235 1982.42885,314.65352 L1982.42885,290.775969 L1967.73497,290.775969 L1967.73497,314.65352 C1967.73497,315.669235 1966.91211,316.490255 1965.89823,316.490255 L1943.85742,316.490255 C1942.8417,316.490255 1942.02068,315.669235 1942.02068,314.65352 L1942.02068,277.918827 C1942.02068,276.903112 1942.8417,276.082092 1943.85742,276.082092 C1944.8713,276.082092 1945.69415,276.903112 1945.69415,277.918827 L1945.69415,312.816786 L1964.0615,312.816786 L1964.0615,288.939235 C1964.0615,287.92352 1964.88252,287.1025 1965.89823,287.1025 L1984.26558,287.1025 C1985.27946,287.1025 1986.10232,287.92352 1986.10232,288.939235 L1986.10232,312.816786 L2004.46966,312.816786 L2004.46966,279.755561 C2004.46966,278.739847 2005.29068,277.918827 2006.3064,277.918827 Z M2018.62556,274.78352 C2019.34372,275.501684 2019.34372,276.6625 2018.62556,277.380663 C2018.2674,277.738827 2017.79719,277.918827 2017.32699,277.918827 C2016.85679,277.918827 2016.38658,277.738827 2016.02842,277.380663 L1975.08209,236.434337 L1934.13577,277.380663 C1933.4176,278.098827 1932.25679,278.098827 1931.53862,277.380663 C1930.82046,276.6625 1930.82046,275.501684 1931.53862,274.78352 L1973.78352,232.538622 C1974.50168,231.820459 1975.6625,231.820459 1976.38066,232.538622 L2018.62556,274.78352 Z M1989.77579,239.347398 C1988.76007,239.347398 1987.93905,238.526378 1987.93905,237.510663 C1987.93905,236.494949 1988.76007,235.673929 1989.77579,235.673929 L2002.63293,235.673929 C2003.64681,235.673929 2004.46966,236.494949 2004.46966,237.510663 L2004.46966,250.367806 C2004.46966,251.38352 2003.64681,252.204541 2002.63293,252.204541 C2001.61721,252.204541 2000.79619,251.38352 2000.79619,250.367806 L2000.79619,239.347398 L1989.77579,239.347398 Z" transform="translate(-1925 -224)"></path></svg>