<svg height='100px' width='100px'  fill="#000000" xmlns="http://www.w3.org/2000/svg" xmlns:xlink="http://www.w3.org/1999/xlink" version="1.1" x="0px" y="0px" viewBox="0 0 64 64" style="enable-background:new 0 0 64 64;" xml:space="preserve"><path d="M57,49h-2v-2c0-0.553-0.448-1-1-1h-4c-0.552,0-1,0.447-1,1v2h-2c-0.552,0-1,0.447-1,1v4c0,0.553,0.448,1,1,1h2v2  c0,0.553,0.448,1,1,1h4c0.552,0,1-0.447,1-1v-2h2c0.552,0,1-0.447,1-1v-4C58,49.447,57.552,49,57,49z M56,53h-2  c-0.552,0-1,0.447-1,1v2h-2v-2c0-0.553-0.448-1-1-1h-2v-2h2c0.552,0,1-0.447,1-1v-2h2v2c0,0.553,0.448,1,1,1h2V53z"></path><path d="M23,25h18c0.552,0,1-0.447,1-1c0-5.514-4.486-10-10-10s-10,4.486-10,10C22,24.553,22.448,25,23,25z M39.938,23H33v-6.93  C36.612,16.524,39.485,19.388,39.938,23z M31,16.07V23h-6.938C24.515,19.388,27.388,16.524,31,16.07z"></path><path d="M61.884,50.561c-0.036-0.251-0.077-0.501-0.132-0.745c-0.029-0.131-0.066-0.26-0.1-0.39  c-0.058-0.219-0.122-0.435-0.194-0.647c-0.047-0.139-0.098-0.275-0.151-0.411c-0.076-0.195-0.16-0.386-0.248-0.575  c-0.066-0.141-0.131-0.282-0.203-0.42c-0.092-0.175-0.193-0.344-0.295-0.513c-0.083-0.139-0.162-0.28-0.252-0.415  c-0.126-0.188-0.265-0.367-0.404-0.546c-0.165-0.214-0.34-0.42-0.523-0.62c-0.125-0.137-0.247-0.275-0.379-0.404  c-0.123-0.121-0.254-0.234-0.384-0.349c-0.141-0.125-0.284-0.248-0.433-0.366c-0.064-0.051-0.121-0.109-0.187-0.158V33h3  c0.404,0,0.769-0.243,0.924-0.617s0.069-0.804-0.217-1.09L53,22.586V5c0-0.553-0.448-1-1-1H42c-0.552,0-1,0.447-1,1v5.586  l-8.293-8.293c-0.391-0.391-1.023-0.391-1.414,0l-29,29c-0.286,0.286-0.372,0.716-0.217,1.09S2.596,33,3,33h3v24  c0,0.553,0.448,1,1,1h6h18h13.002c0.047,0.062,0.101,0.116,0.149,0.177c0.124,0.157,0.254,0.308,0.386,0.457  c0.109,0.123,0.217,0.248,0.331,0.365c0.139,0.142,0.287,0.274,0.435,0.407c0.175,0.159,0.354,0.312,0.539,0.458  c0.197,0.155,0.396,0.308,0.605,0.448c0.131,0.088,0.268,0.164,0.403,0.245c0.172,0.104,0.345,0.207,0.524,0.301  c0.137,0.072,0.277,0.136,0.417,0.201c0.19,0.089,0.382,0.172,0.577,0.249c0.136,0.053,0.272,0.103,0.41,0.15  c0.213,0.073,0.429,0.136,0.648,0.194c0.13,0.034,0.258,0.071,0.389,0.1c0.245,0.055,0.494,0.095,0.745,0.132  c0.112,0.016,0.221,0.039,0.334,0.051C51.258,61.975,51.626,62,52,62c5.514,0,10-4.486,10-10c0-0.374-0.024-0.743-0.065-1.106  C61.923,50.782,61.9,50.672,61.884,50.561z M43,6h8v14.586l-8-8V6z M32,4.414l9.293,9.293l10,10L58.586,31H57H7H5.414L32,4.414z   M14,56V45c0-4.411,3.589-8,8-8s8,3.589,8,8v11H14z M32,56V45c0-5.514-4.486-10-10-10s-10,4.486-10,10v11H8V33h48v9.841  c-0.636-0.279-1.304-0.497-2-0.639V37c0-0.553-0.448-1-1-1H37c-0.552,0-1,0.447-1,1v10c0,0.553,0.448,1,1,1h5.841  C42.303,49.226,42,50.578,42,52s0.303,2.774,0.841,4H32z M50.894,42.065c-0.112,0.012-0.222,0.035-0.334,0.051  c-0.251,0.036-0.5,0.077-0.745,0.132c-0.131,0.029-0.259,0.066-0.389,0.1c-0.219,0.058-0.435,0.122-0.648,0.194  c-0.138,0.047-0.274,0.097-0.409,0.15c-0.196,0.077-0.388,0.161-0.578,0.249c-0.14,0.065-0.28,0.13-0.417,0.201  c-0.178,0.093-0.35,0.196-0.521,0.3c-0.136,0.082-0.274,0.158-0.405,0.247c-0.203,0.136-0.397,0.286-0.589,0.436  c-0.194,0.151-0.38,0.311-0.563,0.477c-0.144,0.13-0.288,0.259-0.424,0.397c-0.117,0.12-0.227,0.247-0.339,0.373  c-0.129,0.146-0.256,0.293-0.377,0.446c-0.049,0.062-0.105,0.118-0.153,0.181H38v-8h14v4C51.626,42,51.258,42.025,50.894,42.065z   M52,60c-0.309,0-0.615-0.022-0.918-0.057c-0.092-0.01-0.181-0.028-0.272-0.042c-0.211-0.032-0.421-0.07-0.628-0.118  c-0.102-0.024-0.203-0.051-0.304-0.078c-0.194-0.053-0.385-0.115-0.573-0.182c-0.098-0.035-0.197-0.069-0.293-0.107  c-0.206-0.083-0.406-0.177-0.604-0.277c-0.069-0.035-0.141-0.064-0.209-0.101c-0.247-0.133-0.484-0.282-0.716-0.441  c-0.1-0.068-0.194-0.144-0.29-0.217c-0.138-0.104-0.275-0.211-0.406-0.324c-0.099-0.085-0.194-0.173-0.289-0.262  c-0.129-0.122-0.253-0.25-0.374-0.382c-0.079-0.086-0.16-0.169-0.235-0.258c-0.185-0.22-0.363-0.448-0.526-0.69  C44.503,55.187,44,53.651,44,52c0-1.653,0.504-3.19,1.366-4.466c0.162-0.24,0.338-0.466,0.522-0.684  c0.077-0.092,0.16-0.178,0.242-0.266c0.119-0.129,0.24-0.255,0.367-0.375c0.096-0.091,0.193-0.18,0.293-0.266  c0.13-0.112,0.265-0.218,0.402-0.321c0.097-0.074,0.192-0.15,0.293-0.219c0.231-0.159,0.469-0.307,0.715-0.44  c0.068-0.037,0.141-0.066,0.21-0.101c0.198-0.099,0.398-0.194,0.603-0.277c0.096-0.039,0.195-0.072,0.293-0.107  c0.189-0.068,0.38-0.129,0.573-0.182c0.101-0.028,0.202-0.055,0.304-0.078c0.207-0.048,0.416-0.086,0.628-0.118  c0.091-0.014,0.18-0.031,0.272-0.042C51.385,44.022,51.691,44,52,44c0.301,0,0.598,0.021,0.891,0.053c0,0,0,0,0,0  c1.314,0.146,2.534,0.609,3.578,1.315c0.238,0.16,0.462,0.335,0.679,0.517c0.095,0.08,0.185,0.167,0.276,0.251  c0.125,0.115,0.247,0.233,0.363,0.355c0.094,0.098,0.185,0.198,0.274,0.301c0.109,0.126,0.211,0.257,0.311,0.39  c0.076,0.101,0.156,0.199,0.227,0.304c0.157,0.23,0.305,0.466,0.437,0.711c0.039,0.072,0.07,0.149,0.107,0.222  c0.097,0.194,0.19,0.39,0.271,0.591c0.04,0.098,0.074,0.199,0.11,0.299c0.067,0.187,0.128,0.376,0.181,0.568  c0.028,0.102,0.055,0.204,0.079,0.307c0.048,0.206,0.086,0.415,0.117,0.625c0.014,0.091,0.031,0.181,0.042,0.273  C59.978,51.385,60,51.691,60,52C60,56.411,56.411,60,52,60z"></path><path d="M25,45c-1.654,0-3,1.346-3,3s1.346,3,3,3s3-1.346,3-3S26.654,45,25,45z M25,49c-0.551,0-1-0.448-1-1s0.449-1,1-1  s1,0.448,1,1S25.551,49,25,49z"></path></svg>